# xmcd CD database file generated by freedbAccess_ocx
#
# Track frame offsets:
#       150
#       11227
#       22640
#       35810
#       50877
#       63457
#       77600
#       88607
#       106165
#       118552
#       132467
#       144395
#
# Disc length: 2075 seconds
#
# Revision: 0
# Processed by: cddbd v1.4PL0 Copyright (c) Steve Scherf et al.
# Submitted via: CDnGo 2.00
#
DISCID=9e08190c
DTITLE=The Stetson Stompers - Country Line Dancing
DYEAR=1900
DGENRE=Country
TTITLE0=Chattahoochee
TTITLE1=Not counting You
TTITLE2=The streets of Bakersfield
TTITLE3=Achey breaky heart
TTITLE4=Sweet dream baby
TTITLE5=Guitars and Cadillacs
TTITLE6=Summertime blues
TTITLE7=Mama knows the highway
TTITLE8=New way to light up an old flame
TTITLE9=Just call me lonesome
TTITLE10=These boots were made for walking
TTITLE11=The sheriff is a-huntin' me a man
EXTD=
EXTT0=
EXTT1=
EXTT2=
EXTT3=
EXTT4=
EXTT5=
EXTT6=
EXTT7=
EXTT8=
EXTT9=
EXTT10=
EXTT11=
PLAYORDER=
